<svg xmlns="http://www.w3.org/2000/svg" width="13.934" height="18" viewBox="0 0 13.934 18">
    <defs>
        <style>
            .cls-1{fill:#67748a}
        </style>
    </defs>
    <path id="bell" d="M12.565 12.992V7.565a5.608 5.608 0 0 0-3.972-5.358v-.485A1.679 1.679 0 0 0 6.967 0a1.679 1.679 0 0 0-1.628 1.722v.485a5.608 5.608 0 0 0-3.971 5.358v5.427A1.611 1.611 0 0 0 0 14.583v.841a.655.655 0 0 0 .654.654h3.92a2.449 2.449 0 0 0 4.784 0h3.92a.655.655 0 0 0 .654-.654v-.841a1.611 1.611 0 0 0-1.367-1.591zM6.394 1.722a.626.626 0 0 1 .573-.667.626.626 0 0 1 .573.667V2a5.652 5.652 0 0 0-1.146 0zM2.423 7.565a4.544 4.544 0 0 1 9.087 0v5.409H2.423zm4.544 9.381a1.4 1.4 0 0 1-1.292-.868h2.583a1.4 1.4 0 0 1-1.291.867zm5.912-1.923H1.055v-.44a.555.555 0 0 1 .554-.554h10.716a.555.555 0 0 1 .554.554zm0 0" class="cls-1"/>
</svg>
