<svg id="Icon_notification" xmlns="http://www.w3.org/2000/svg" width="14.223" height="16" viewBox="0 0 14.223 16">
  <path id="Path" d="M7.111,0A1.778,1.778,0,0,0,5.333,1.778v.3a5.336,5.336,0,0,0-3.556,5.03v4.444H.889a.889.889,0,1,0,0,1.778H13.333a.889.889,0,1,0,0-1.778h-.889V7.111a5.336,5.336,0,0,0-3.556-5.03v-.3A1.778,1.778,0,0,0,7.111,0Z" fill="#fff"/>
  <path id="Path-2" data-name="Path" d="M1.778,1.778A1.778,1.778,0,0,1,0,0H3.556A1.778,1.778,0,0,1,1.778,1.778Z" transform="translate(5.333 14.222)" fill="#fff"/>
</svg>
