<svg xmlns="http://www.w3.org/2000/svg" width="16" height="16" viewBox="0 0 16 16">
  <g id="Group_9241" data-name="Group 9241" transform="translate(-344 -2016)">
    <g id="Path_16509" data-name="Path 16509" transform="translate(344 2016)" fill="none">
      <path d="M2.667,0H13.333A2.667,2.667,0,0,1,16,2.667V13.333A2.667,2.667,0,0,1,13.333,16H2.667A2.667,2.667,0,0,1,0,13.333V2.667A2.667,2.667,0,0,1,2.667,0Z" stroke="none"/>
      <path d="M 2.666669845581055 1.399999618530273 C 1.968230247497559 1.399999618530273 1.399999618530273 1.968230247497559 1.399999618530273 2.666669845581055 L 1.399999618530273 13.33333015441895 C 1.399999618530273 14.03176975250244 1.968230247497559 14.60000038146973 2.666669845581055 14.60000038146973 L 13.33333015441895 14.60000038146973 C 14.03176975250244 14.60000038146973 14.60000038146973 14.03176975250244 14.60000038146973 13.33333015441895 L 14.60000038146973 2.666669845581055 C 14.60000038146973 1.968230247497559 14.03176975250244 1.399999618530273 13.33333015441895 1.399999618530273 L 2.666669845581055 1.399999618530273 M 2.666669845581055 0 L 13.33333015441895 0 C 14.80609035491943 0 16 1.193909645080566 16 2.666669845581055 L 16 13.33333015441895 C 16 14.80609035491943 14.80609035491943 16 13.33333015441895 16 L 2.666669845581055 16 C 1.193909645080566 16 0 14.80609035491943 0 13.33333015441895 L 0 2.666669845581055 C 0 1.193909645080566 1.193909645080566 0 2.666669845581055 0 Z" stroke="none" fill="#5c6a82"/>
    </g>
    <g id="Icon_plus" transform="translate(347.333 2019.333)">
      <g id="Icon_plus-2" data-name="Icon_plus" transform="translate(0 0)">
        <path id="Path" d="M4.667,0A.667.667,0,0,0,4,.667V4H.667a.667.667,0,0,0,0,1.333H4V8.667a.667.667,0,1,0,1.333,0V5.333H8.667A.667.667,0,1,0,8.667,4H5.333V.667A.667.667,0,0,0,4.667,0Z" fill="#5c6a82"/>
      </g>
    </g>
  </g>
</svg>
