<svg xmlns="http://www.w3.org/2000/svg" width="32" height="32" viewBox="0 0 32 32">
  <g id="Group_4108" data-name="Group 4108" transform="translate(-5 -5)">
    <g id="Group_4107" data-name="Group 4107" transform="translate(5 5)">
      <path id="Path_13319" data-name="Path 13319" d="M12.285,17.441,21,22.282l8.715-4.841L21,12.6ZM21,5A16,16,0,1,0,37,21,16,16,0,0,0,21,5Zm0,25.478L10.333,24.552h1.953L21,29.393l8.715-4.841h1.952Zm0-3.556L10.333,21h1.953L21,25.837,29.715,21h1.952Zm0-3.556L10.333,17.441,21,11.514l10.667,5.926Z" transform="translate(-5 -5)" fill="#595959"/>
    </g>
  </g>
</svg>
