<svg id="Group_97_Copy" data-name="Group 97 Copy" xmlns="http://www.w3.org/2000/svg" width="16" height="16" viewBox="0 0 16 16">
  <rect id="Rectangle_38" data-name="Rectangle 38" width="16" height="16" fill="none"/>
  <g id="Group_96" data-name="Group 96" transform="translate(0)">
    <rect id="Rectangle_38_Copy" data-name="Rectangle 38 Copy" width="15.984" height="15.984" transform="translate(0.014)" fill="none"/>
    <g id="folderopen" transform="translate(0 1.311)">
      <path id="Shape" d="M13.426,13.359H1.063l-.036,0H1.013a.011.011,0,0,0-.008,0,1.089,1.089,0,0,1-.507-.19l0,0-.011-.008-.028-.021-.006,0,0,0-.021-.018L.415,13.1l-.009-.007L.4,13.086.381,13.07l-.022-.02-.014-.014,0,0a1.142,1.142,0,0,1-.281-.453c-.005-.016-.01-.032-.016-.052l0-.019,0-.012,0-.012,0-.02,0-.02a.021.021,0,0,1,0-.006l0-.007c0-.007,0-.014,0-.021s0-.018,0-.028,0,0,0-.006A1.2,1.2,0,0,1,0,12.211V1.156A1.142,1.142,0,0,1,1.124,0H6.173A1.124,1.124,0,0,1,7.244.8l.39,1.251h6.229a1.142,1.142,0,0,1,1.125,1.156V5.146a1.119,1.119,0,0,1,.8.49,1.18,1.18,0,0,1,.169.937l-1.436,5.91A1.132,1.132,0,0,1,13.426,13.359ZM2.561,6.3l-1.437,5.91h12.3L14.862,6.3ZM1.124,1.156V7.441l.345-1.426a1.132,1.132,0,0,1,1.092-.875h11.3V3.212H6.813L6.17,1.156Z" transform="translate(0 0)" fill="#9b9ca5"/>
    </g>
  </g>
</svg>
