<svg xmlns="http://www.w3.org/2000/svg" width="12.385" height="16" viewBox="0 0 12.385 16">
  <path id="bell" d="M11.169,11.548V6.724A4.985,4.985,0,0,0,7.638,1.962c0-.009,0-.018,0-.027v-.4A1.492,1.492,0,0,0,6.193,0,1.492,1.492,0,0,0,4.746,1.531v.4c0,.009,0,.018,0,.027A4.985,4.985,0,0,0,1.216,6.724v4.824A1.432,1.432,0,0,0,0,12.962v.747a.582.582,0,0,0,.581.581H4.066a2.177,2.177,0,0,0,4.253,0H11.8a.582.582,0,0,0,.581-.581v-.747A1.432,1.432,0,0,0,11.169,11.548ZM5.683,1.531A.557.557,0,0,1,6.193.938a.557.557,0,0,1,.509.593v.243a5.024,5.024,0,0,0-1.019,0ZM2.154,6.724a4.039,4.039,0,0,1,8.078,0v4.808H2.154Zm4.039,8.338a1.242,1.242,0,0,1-1.148-.771h2.3A1.242,1.242,0,0,1,6.193,15.063Zm5.255-1.709H.938v-.391a.493.493,0,0,1,.492-.492h9.525a.493.493,0,0,1,.492.492Zm0,0" fill="#fff"/>
</svg>
