<svg xmlns="http://www.w3.org/2000/svg" xmlns:xlink="http://www.w3.org/1999/xlink" width="32" height="32" viewBox="0 0 32 32">
  <defs>
    <linearGradient id="linear-gradient" y1="0.5" x2="1" y2="0.5" gradientUnits="objectBoundingBox">
      <stop offset="0" stop-color="#d31d00"/>
      <stop offset="1" stop-color="#fa7522"/>
    </linearGradient>
  </defs>
  <g id="Group_4224" data-name="Group 4224" transform="translate(-264 -76)">
    <g id="Group_4203" data-name="Group 4203" transform="translate(-3838 -2856)">
      <circle id="Ellipse_32" data-name="Ellipse 32" cx="16" cy="16" r="16" transform="translate(4102 2932)" fill="url(#linear-gradient)"/>
      <g id="Group_205" data-name="Group 205" transform="translate(4110 2940)">
        <rect id="Rectangle_48_Copy_4" data-name="Rectangle 48 Copy 4" width="16" height="16" fill="none"/>
        <path id="Shape" d="M14.875,12.5H1.125A1.151,1.151,0,0,1,0,11.328V1.172A1.151,1.151,0,0,1,1.125,0h13.75A1.15,1.15,0,0,1,16,1.172V11.328A1.15,1.15,0,0,1,14.875,12.5ZM5.124,8.578h0v2.75h9.75V8.578a.016.016,0,0,1-.016.016H5.141a.016.016,0,0,1-.015-.016Zm-4-3.89v6.641H4V4.688ZM5.141,7.422h9.718a.016.016,0,0,1,.016.016V4.688H5.125v2.75A.016.016,0,0,1,5.141,7.422ZM1.125,1.172V3.515h13.75V1.172Z" transform="translate(0 1.75)" fill="#fff"/>
      </g>
    </g>
  </g>
</svg>
