<svg xmlns="http://www.w3.org/2000/svg" width="49.24" height="45.238" viewBox="0 0 49.24 45.238">
  <g id="Group_4111" data-name="Group 4111" transform="translate(-1072.442 -393)">
    <path id="Path_7815" data-name="Path 7815" d="M194.429,412a14.41,14.41,0,0,0-12.221,22.075,8.042,8.042,0,0,1,6.243-2.77,7.467,7.467,0,0,1,1.255.112,6.929,6.929,0,0,1,9.278-8.125,11.336,11.336,0,0,1,6.2-6.457A14.377,14.377,0,0,0,194.429,412Z" transform="translate(893 -19)" fill="#e9eaeb"/>
    <path id="Path_7816" data-name="Path 7816" d="M210.622,446.657h9.366c4.514,0,7.642-3.55,7.643-8.137a8.35,8.35,0,0,0-6.844-8.41,10.222,10.222,0,0,0,.174-1.82,11.238,11.238,0,0,0-21.774-3.878,6.913,6.913,0,0,0-9.278,8.125,7.47,7.47,0,0,0-1.255-.112c-4.145,0-7.729,2.8-7.729,6.945a7.464,7.464,0,0,0,7.643,7.289h12.694" transform="translate(892.796 -20.118)" fill="none" stroke="#595959" stroke-miterlimit="10" stroke-width="1.5"/>
    <path id="Path_7817" data-name="Path 7817" d="M180,455.334c2.26,2.515,4.745,3.639,9.215,3.639h3.265" transform="translate(893 -28.535)" fill="none" stroke="#bcc0c4" stroke-miterlimit="10" stroke-width="1.5"/>
    <path id="Path_7818" data-name="Path 7818" d="M238.782,455a7.446,7.446,0,0,1-6.517,3.9H229" transform="translate(882.218 -28.461)" fill="none" stroke="#bcc0c4" stroke-miterlimit="10" stroke-width="1.5"/>
    <line id="Line_2787" data-name="Line 2787" y1="6.24" transform="translate(1096.399 409.379)" fill="none" stroke="#595959" stroke-miterlimit="10" stroke-width="1.5"/>
    <path id="Path_7819" data-name="Path 7819" d="M222.24,433v4.779l-6.24,3.8V452.5" transform="translate(885.079 -23.621)" fill="none" stroke="#595959" stroke-miterlimit="10" stroke-width="1.5"/>
    <path id="Path_7820" data-name="Path 7820" d="M222.143,431.48a1.935,1.935,0,1,1,2.706-.406A1.935,1.935,0,0,1,222.143,431.48Z" transform="translate(883.9 -21.518)" fill="#ff8a5b"/>
    <path id="Path_7821" data-name="Path 7821" d="M214.926,437.369a1.935,1.935,0,1,1,2.706-.407A1.935,1.935,0,0,1,214.926,437.369Z" transform="translate(885.488 -22.814)" fill="#ff8a5b"/>
    <path id="Path_7822" data-name="Path 7822" d="M208.225,444.276a1.935,1.935,0,1,1,2.706-.407A1.936,1.936,0,0,1,208.225,444.276Z" transform="translate(886.962 -25.333)" fill="#ff8a5b"/>
    <path id="Path_7823" data-name="Path 7823" d="M202,439v4.765l6.24,4.595v8.58" transform="translate(888.159 -24.941)" fill="none" stroke="#595959" stroke-miterlimit="10" stroke-width="1.5"/>
    <path id="Path_7824" data-name="Path 7824" d="M202.217,437.394a1.935,1.935,0,1,0-2.706-.406A1.934,1.934,0,0,0,202.217,437.394Z" transform="translate(888.79 -22.819)" fill="#ff8a5b"/>
    <path id="Path_7825" data-name="Path 7825" d="M208.215,431.453a1.935,1.935,0,1,1,2.706-.406A1.935,1.935,0,0,1,208.215,431.453Z" transform="translate(886.965 -21.512)" fill="#ff8a5b"/>
    <path id="Path_7826" data-name="Path 7826" d="M225,449.46h4.005A5.582,5.582,0,0,0,234.36,444" transform="translate(883.099 -26.041)" fill="none" stroke="#595959" stroke-miterlimit="10" stroke-width="1.5"/>
    <path id="Path_7827" data-name="Path 7827" d="M195.92,449.9h-6.49c-2.2,0-4.429-1.7-4.429-3.9" transform="translate(891.9 -26.481)" fill="none" stroke="#595959" stroke-miterlimit="10" stroke-width="1.5"/>
    <line id="Line_2788" data-name="Line 2788" y2="1.56" transform="translate(1101.079 430.438)" fill="none" stroke="#595959" stroke-miterlimit="10" stroke-width="1.5"/>
    <line id="Line_2789" data-name="Line 2789" y2="1.56" transform="translate(1101.079 433.558)" fill="none" stroke="#595959" stroke-miterlimit="10" stroke-width="1.5"/>
    <line id="Line_2790" data-name="Line 2790" y2="1.56" transform="translate(1096.399 433.558)" fill="none" stroke="#595959" stroke-miterlimit="10" stroke-width="1.5"/>
    <line id="Line_2791" data-name="Line 2791" y2="1.56" transform="translate(1096.399 436.678)" fill="none" stroke="#595959" stroke-miterlimit="10" stroke-width="1.5"/>
  </g>
</svg>
