<svg xmlns="http://www.w3.org/2000/svg" xmlns:xlink="http://www.w3.org/1999/xlink" width="177.725" height="24.137" viewBox="0 0 177.725 24.137">
  <defs>
    <linearGradient id="linear-gradient" x1="0.5" y1="0.734" x2="1" y2="0.734" gradientUnits="objectBoundingBox">
      <stop offset="0" stop-color="#fff"/>
      <stop offset="1" stop-color="#f97321"/>
    </linearGradient>
    <linearGradient id="linear-gradient-3" x1="0.378" y1="0.5" x2="0" y2="1" gradientUnits="objectBoundingBox">
      <stop offset="0" stop-color="#fff"/>
      <stop offset="1" stop-color="#ff9452"/>
    </linearGradient>
  </defs>
  <g id="Group_4231" data-name="Group 4231" transform="translate(1486 956)">
    <g id="Group_1" data-name="Group 1" transform="translate(-1498.395 -964)">
      <path id="Path_446" data-name="Path 446" d="M336.566,1790.615v8.311a4.334,4.334,0,0,0,.159,1.245c.157.307.341.764,1.518.919a8.49,8.49,0,0,1,3.841,1.917c3.479,2.723,5.01,6.519,8.4,9.031a6.234,6.234,0,0,0,3.793,1.453c.646-.04.965-.215,1.18-.635a3.758,3.758,0,0,0,.183-1.35v-9.468s-1.767.987-5.156-1.734-4.92-6.474-8.4-9.152a6.789,6.789,0,0,0-4.831-1.754C336.479,1789.447,336.566,1790.615,336.566,1790.615Z" transform="translate(-324.168 -1781.353)" fill="#fff"/>
      <path id="Path_13299" data-name="Path 13299" d="M336.566,1790.615v8.311a4.334,4.334,0,0,0,.159,1.245c.157.307.341.764,1.518.919a8.49,8.49,0,0,1,3.841,1.917c3.479,2.723,5.01,6.519,8.4,9.031a6.234,6.234,0,0,0,3.793,1.453c.646-.04.965-.215,1.18-.635a3.758,3.758,0,0,0,.183-1.35v-9.468s-1.767.987-5.156-1.734-4.92-6.474-8.4-9.152a6.789,6.789,0,0,0-4.831-1.754C336.479,1789.447,336.566,1790.615,336.566,1790.615Z" transform="translate(-324.168 -1781.353)" opacity="0.5" fill="url(#linear-gradient)"/>
      <path id="Path_447" data-name="Path 447" d="M336.875,1790.6v11.421s2.039-1.752,5.518.97,5.01,6.519,8.4,9.03a6.233,6.233,0,0,0,3.793,1.453c.646-.04.965-.215,1.18-.635a3.758,3.758,0,0,0,.183-1.35v-9.468s-1.767.987-5.156-1.734-4.92-6.474-8.4-9.152a6.79,6.79,0,0,0-4.831-1.753C336.788,1789.428,336.875,1790.6,336.875,1790.6Z" transform="translate(-305.425 -1781.352)" fill="#fff"/>
      <path id="Path_13300" data-name="Path 13300" d="M336.875,1790.6v11.421s2.039-1.752,5.518.97,5.01,6.519,8.4,9.03a6.233,6.233,0,0,0,3.793,1.453c.646-.04.965-.215,1.18-.635a3.758,3.758,0,0,0,.183-1.35v-9.468s-1.767.987-5.156-1.734-4.92-6.474-8.4-9.152a6.79,6.79,0,0,0-4.831-1.753C336.788,1789.428,336.875,1790.6,336.875,1790.6Z" transform="translate(-305.425 -1781.352)" opacity="0.5" fill="url(#linear-gradient)"/>
      <path id="Path_448" data-name="Path 448" d="M720.66,1552.892a1.611,1.611,0,0,0-.354,1.02l-.014,11.367a13.938,13.938,0,0,0,4.739-4.685,27.694,27.694,0,0,0,2.54-6.177c.3-1,.182-1.3-.057-1.634s-1.338-.261-1.338-.261H721.7A1.569,1.569,0,0,0,720.66,1552.892Z" transform="translate(-669.856 -1544.515)" fill="#fff"/>
      <path id="Path_478" data-name="Path 478" d="M720.66,1552.892a1.611,1.611,0,0,0-.354,1.02l-.014,11.367a13.938,13.938,0,0,0,4.739-4.685,27.694,27.694,0,0,0,2.54-6.177c.3-1,.182-1.3-.057-1.634s-1.338-.261-1.338-.261H721.7A1.569,1.569,0,0,0,720.66,1552.892Z" transform="translate(-669.856 -1544.515)" fill="url(#linear-gradient-3)"/>
    </g>
    <path id="Path_13339" data-name="Path 13339" d="M7.36-11.92v-2.52a6.729,6.729,0,0,0-2.16-.3c-2.14,0-3.32,1.08-3.32,3.44v.68H.62v2.5H1.88V0H4.92V-8.12H7.34V-10.6H4.88v-.42c0-.8.4-1.16,1.1-1.16A3.85,3.85,0,0,1,7.36-11.92Zm12.9,6.58v-.04c0-3.58-2.38-5.54-4.88-5.54a3.937,3.937,0,0,0-3.34,1.74v-1.54H9V3.2h3.04V-1.4A4.117,4.117,0,0,0,15.38.2C17.92.2,20.26-1.76,20.26-5.34Zm-3.04,0A2.722,2.722,0,0,1,14.6-2.38,2.719,2.719,0,0,1,12-5.34v-.04a2.719,2.719,0,0,1,2.6-2.96,2.734,2.734,0,0,1,2.62,2.96Zm11.3,4.9V-2.88a3.092,3.092,0,0,1-1.5.38c-.68,0-.98-.34-.98-1.04V-8.12h2.52v-2.6H26.04v-2.74H23v2.74H21.72v2.6H23v5.08C23-.56,24.26.18,26.12.18A4.482,4.482,0,0,0,28.52-.44ZM46.18-10.72H43.16L41.4-4.2l-2.04-6.56H36.74L34.72-4.22,33-10.72H29.92L33.22.08h2.72l2.1-6.58L40.1.08h2.74ZM58.6-5.34v-.04a5.572,5.572,0,0,0-5.78-5.54A5.627,5.627,0,0,0,47-5.34v.04A5.572,5.572,0,0,0,52.78.24,5.627,5.627,0,0,0,58.6-5.34Zm-3,.04a2.746,2.746,0,0,1-2.78,2.92A2.848,2.848,0,0,1,50-5.34v-.04A2.746,2.746,0,0,1,52.78-8.3,2.848,2.848,0,0,1,55.6-5.34ZM67.26-7.74v-3.18a3.311,3.311,0,0,0-3.42,2.36v-2.16H60.8V0h3.04V-3.96c0-2.56,1.24-3.78,3.26-3.78ZM79.54,0,75.32-6.5l4.08-4.22H75.76L72.2-6.82V-14.6H69.16V0H72.2V-3.26l1.06-1.12L76.06,0ZM99.82-7v-.04c0-3.94-3.04-6.96-7.44-6.96H87.72V0h4.66C96.78,0,99.82-3.06,99.82-7Zm-1.08.04c0,3.34-2.46,6-6.36,6H88.76V-13.04h3.62A5.983,5.983,0,0,1,98.74-7ZM113.42,0V-.96H104.4V-6.58h8.02v-.96H104.4v-5.5h8.92V-14h-9.96V0ZM128.8-14h-1.1L122.2-1.12,116.72-14h-1.16L121.72.1h.92Z" transform="translate(-1437.075 -936)" fill="#fff"/>
  </g>
</svg>
