<svg xmlns="http://www.w3.org/2000/svg" width="16.3" height="16.3" viewBox="0 0 16.3 16.3">
  <g id="_77_essential_icons_layers" data-name="77 essential icons layers" transform="translate(-13.85 -13.85)">
    <g id="_x37_7_Essential_Icons" transform="translate(14 14)">
      <path id="Layers" d="M29.556,14H18.889a.446.446,0,0,0-.444.444v4h-4a.446.446,0,0,0-.444.444V29.556a.446.446,0,0,0,.444.444H25.111a.446.446,0,0,0,.444-.444v-4h4A.446.446,0,0,0,30,25.111V14.444A.446.446,0,0,0,29.556,14ZM24.667,29.111H14.889V19.333h3.556v5.778a.446.446,0,0,0,.444.444h5.778Zm4.444-4.444H19.333V14.889h9.778Z" transform="translate(-14 -14)" fill="#9b9ca5" stroke="#9b9ca5" stroke-width="0.3"/>
    </g>
  </g>
</svg>
