<svg xmlns="http://www.w3.org/2000/svg" width="16.1" height="16.1" viewBox="0 0 16.1 16.1">
  <path id="Path_13309" data-name="Path 13309" d="M32.312,29.173c-2.361,0-3.139.778-3.139,3.139s.778,3.139,3.139,3.139,3.139-.778,3.139-3.139S34.673,29.173,32.312,29.173Zm0,5.344c-1.846,0-2.205-.359-2.205-2.205s.359-2.205,2.205-2.205,2.205.359,2.205,2.205S34.158,34.517,32.312,34.517Zm7.609-4.145-1.472-.244a6.513,6.513,0,0,0-.254-.612l.869-1.213a.467.467,0,0,0-.05-.6l-2.092-2.092a.467.467,0,0,0-.6-.05l-1.213.869a6.482,6.482,0,0,0-.612-.254L34.252,24.7a.467.467,0,0,0-.461-.391H30.833a.467.467,0,0,0-.461.391l-.243,1.472a6.566,6.566,0,0,0-.612.254L28.3,25.56a.467.467,0,0,0-.6.05L25.609,27.7a.467.467,0,0,0-.05.6l.869,1.213a6.435,6.435,0,0,0-.254.612l-1.472.243a.467.467,0,0,0-.391.461v2.959a.467.467,0,0,0,.391.461l1.472.243a6.516,6.516,0,0,0,.254.612L25.56,36.32a.467.467,0,0,0,.05.6L27.7,39.015a.467.467,0,0,0,.6.05l1.213-.869a6.446,6.446,0,0,0,.612.254l.244,1.472a.467.467,0,0,0,.461.391h2.959a.467.467,0,0,0,.461-.391L34.5,38.45a6.514,6.514,0,0,0,.612-.254l1.213.869a.467.467,0,0,0,.6-.05l2.092-2.092a.467.467,0,0,0,.05-.6L38.2,35.107a6.43,6.43,0,0,0,.254-.612l1.472-.244a.467.467,0,0,0,.391-.461V30.833A.467.467,0,0,0,39.921,30.372ZM39.378,33.4l-1.359.225a.467.467,0,0,0-.37.324,5.567,5.567,0,0,1-.409.986.466.466,0,0,0,.032.491l.8,1.121-1.532,1.532-1.121-.8a.466.466,0,0,0-.491-.032,5.566,5.566,0,0,1-.986.409.467.467,0,0,0-.324.37l-.225,1.359H31.229L31,38.019a.467.467,0,0,0-.324-.37,5.569,5.569,0,0,1-.986-.41.468.468,0,0,0-.491.032l-1.121.8L26.55,36.542l.8-1.121a.466.466,0,0,0,.032-.491,5.579,5.579,0,0,1-.409-.986.467.467,0,0,0-.37-.324l-1.359-.225V31.229L26.605,31a.467.467,0,0,0,.37-.324,5.579,5.579,0,0,1,.409-.986.466.466,0,0,0-.032-.491l-.8-1.121,1.532-1.532,1.121.8a.469.469,0,0,0,.491.032,5.572,5.572,0,0,1,.986-.41.467.467,0,0,0,.324-.37l.225-1.359H33.4l.225,1.359a.467.467,0,0,0,.324.37,5.572,5.572,0,0,1,.986.41.468.468,0,0,0,.491-.032l1.121-.8,1.532,1.532-.8,1.121a.466.466,0,0,0-.032.491,5.566,5.566,0,0,1,.409.986.467.467,0,0,0,.37.324l1.359.225Z" transform="translate(-24.262 -24.262)" fill="#b5b6bc" stroke="#b5b6bc" stroke-width="0.1"/>
</svg>
