<svg xmlns="http://www.w3.org/2000/svg" xmlns:xlink="http://www.w3.org/1999/xlink" width="32" height="32" viewBox="0 0 32 32">
  <defs>
    <linearGradient id="linear-gradient" y1="0.5" x2="1" y2="0.5" gradientUnits="objectBoundingBox">
      <stop offset="0" stop-color="#d31d00"/>
      <stop offset="1" stop-color="#fa7522"/>
    </linearGradient>
  </defs>
  <g id="Group_4221" data-name="Group 4221" transform="translate(-264 -76)">
    <circle id="Ellipse_32" data-name="Ellipse 32" cx="16" cy="16" r="16" transform="translate(264 76)" fill="url(#linear-gradient)"/>
    <g id="_77_essential_icons_layers" data-name="77 essential icons layers" transform="translate(258 70)">
      <g id="_x37_7_Essential_Icons" transform="translate(14 14)">
        <path id="Layers" d="M29.556,14H18.889a.446.446,0,0,0-.444.444v4h-4a.446.446,0,0,0-.444.444V29.556a.446.446,0,0,0,.444.444H25.111a.446.446,0,0,0,.444-.444v-4h4A.446.446,0,0,0,30,25.111V14.444A.446.446,0,0,0,29.556,14ZM24.667,29.111H14.889V19.333h3.556v5.778a.446.446,0,0,0,.444.444h5.778Zm4.444-4.444H19.333V14.889h9.778Z" transform="translate(-14 -14)" fill="#fff" stroke="#fff" stroke-width="0.3"/>
      </g>
    </g>
  </g>
</svg>
