<svg xmlns="http://www.w3.org/2000/svg" width="49.5" height="45.566" viewBox="0 0 49.5 45.566">
  <g id="Group_4110" data-name="Group 4110" transform="translate(-1072.25 -462.25)">
    <path id="Path_12281" data-name="Path 12281" d="M421.9,460.681a18.127,18.127,0,0,1-13.321-13.515" transform="translate(672.745 41.932)" fill="none" stroke="#bcc0c4" stroke-linecap="round" stroke-miterlimit="10" stroke-width="1.5"/>
    <path id="Path_12282" data-name="Path 12282" d="M437.885,443.443A9.443,9.443,0,1,1,428.443,434,9.443,9.443,0,0,1,437.885,443.443Z" transform="translate(670.525 44.738)" fill="#e9eaeb"/>
    <path id="Path_12283" data-name="Path 12283" d="M408,437.1a18.1,18.1,0,1,1,18.1,18.1" transform="translate(672.869 47.934)" fill="none" stroke="#595959" stroke-linecap="round" stroke-miterlimit="10" stroke-width="1.5"/>
    <path id="Path_12284" data-name="Path 12284" d="M437.032,430.2a10.5,10.5,0,0,0-18.315,2.769l.344.275a9.616,9.616,0,0,1,1.307-1.2c3.962-2.946,9.541-2.556,12.285,1.335l4.673-2.741C437.227,430.491,437.138,430.341,437.032,430.2Z" transform="translate(670.585 46.447)" fill="#ff8a5b"/>
    <path id="Path_12285" data-name="Path 12285" d="M441.705,435.11l-.393-.495-10.237,5.966a3.139,3.139,0,1,0,2.219,2.993c0-.01,0-.02,0-.03Z" transform="translate(668.82 44.607)" fill="#fff" stroke="#595959" stroke-linejoin="round" stroke-width="1.5"/>
    <path id="Path_12286" data-name="Path 12286" d="M439.945,415.892A21.959,21.959,0,0,0,431,414" transform="translate(667.967 49)" fill="none" stroke="#bcc0c4" stroke-linecap="round" stroke-miterlimit="10" stroke-width="1.5"/>
    <path id="Path_12287" data-name="Path 12287" d="M452.333,424.416a22.149,22.149,0,0,0-6.161-5.953" transform="translate(664.734 48.049)" fill="none" stroke="#bcc0c4" stroke-linecap="round" stroke-miterlimit="10" stroke-width="1.5"/>
    <path id="Path_12288" data-name="Path 12288" d="M404.3,428,398,439.016h3.934a22.033,22.033,0,1,0,42.19-8.908" transform="translate(675 46.016)" fill="none" stroke="#bcc0c4" stroke-linecap="round" stroke-linejoin="round" stroke-width="1.5"/>
    <line id="Line_4597" data-name="Line 4597" y2="2.361" transform="translate(1098.967 466.934)" fill="none" stroke="#595959" stroke-linecap="round" stroke-miterlimit="10" stroke-width="1.5"/>
    <line id="Line_4598" data-name="Line 4598" x2="1.18" y2="2.044" transform="translate(1089.918 469.359)" fill="none" stroke="#595959" stroke-linecap="round" stroke-miterlimit="10" stroke-width="1.5"/>
    <line id="Line_4599" data-name="Line 4599" x2="2.044" y2="1.18" transform="translate(1083.293 475.984)" fill="none" stroke="#595959" stroke-linecap="round" stroke-miterlimit="10" stroke-width="1.5"/>
    <line id="Line_4600" data-name="Line 4600" x2="2.361" transform="translate(1080.869 485.033)" fill="none" stroke="#595959" stroke-linecap="round" stroke-miterlimit="10" stroke-width="1.5"/>
    <line id="Line_4601" data-name="Line 4601" x1="2.044" y1="1.18" transform="translate(1112.596 492.902)" fill="none" stroke="#595959" stroke-linecap="round" stroke-miterlimit="10" stroke-width="1.5"/>
    <line id="Line_4602" data-name="Line 4602" x1="2.361" transform="translate(1114.705 485.033)" fill="none" stroke="#595959" stroke-linecap="round" stroke-miterlimit="10" stroke-width="1.5"/>
    <line id="Line_4603" data-name="Line 4603" x1="2.044" y2="1.18" transform="translate(1112.596 475.984)" fill="none" stroke="#595959" stroke-linecap="round" stroke-miterlimit="10" stroke-width="1.5"/>
    <line id="Line_4604" data-name="Line 4604" x1="1.18" y2="2.044" transform="translate(1106.836 469.359)" fill="none" stroke="#595959" stroke-linecap="round" stroke-miterlimit="10" stroke-width="1.5"/>
  </g>
</svg>
