<svg xmlns="http://www.w3.org/2000/svg" width="14.1" height="14.1" viewBox="0 0 14.1 14.1">
  <path id="Path_13312" data-name="Path 13312" d="M31.312,28.565c-2.066,0-2.747.681-2.747,2.747s.681,2.747,2.747,2.747,2.747-.681,2.747-2.747S33.378,28.565,31.312,28.565Zm0,4.676c-1.615,0-1.929-.314-1.929-1.929s.314-1.929,1.929-1.929,1.929.314,1.929,1.929S32.927,33.241,31.312,33.241Zm6.658-3.627L36.682,29.4a5.7,5.7,0,0,0-.222-.535l.76-1.062a.409.409,0,0,0-.043-.527l-1.831-1.831a.409.409,0,0,0-.527-.043l-1.062.76a5.672,5.672,0,0,0-.535-.222l-.213-1.288a.408.408,0,0,0-.4-.342H30.018a.408.408,0,0,0-.4.342L29.4,25.942a5.745,5.745,0,0,0-.535.222L27.8,25.4a.409.409,0,0,0-.527.043l-1.831,1.831a.409.409,0,0,0-.043.527l.76,1.062a5.631,5.631,0,0,0-.222.535l-1.288.213a.408.408,0,0,0-.342.4v2.589a.408.408,0,0,0,.342.4l1.288.213a5.7,5.7,0,0,0,.222.535l-.76,1.062a.409.409,0,0,0,.043.527l1.831,1.831a.409.409,0,0,0,.527.043l1.062-.76a5.638,5.638,0,0,0,.535.222l.213,1.288a.408.408,0,0,0,.4.342h2.589a.408.408,0,0,0,.4-.342l.213-1.288a5.7,5.7,0,0,0,.535-.222l1.062.76a.409.409,0,0,0,.527-.043l1.831-1.831a.409.409,0,0,0,.043-.527l-.76-1.062a5.626,5.626,0,0,0,.222-.535l1.288-.213a.408.408,0,0,0,.342-.4V30.018A.409.409,0,0,0,37.97,29.615Zm-.476,2.645-1.189.2a.409.409,0,0,0-.324.284,4.871,4.871,0,0,1-.358.863.408.408,0,0,0,.028.43l.7.981-1.34,1.34-.981-.7a.408.408,0,0,0-.43-.028,4.871,4.871,0,0,1-.863.358.409.409,0,0,0-.284.324l-.2,1.189h-1.9l-.2-1.189a.409.409,0,0,0-.284-.324,4.873,4.873,0,0,1-.862-.358.41.41,0,0,0-.43.028l-.981.7-1.34-1.34.7-.981A.408.408,0,0,0,27,33.6a4.882,4.882,0,0,1-.358-.863.409.409,0,0,0-.324-.284l-1.189-.2v-1.9l1.189-.2a.409.409,0,0,0,.324-.284A4.882,4.882,0,0,1,27,29.021a.408.408,0,0,0-.028-.43l-.7-.981,1.34-1.34.981.7a.41.41,0,0,0,.43.028,4.875,4.875,0,0,1,.863-.358.409.409,0,0,0,.284-.324l.2-1.189h1.9l.2,1.189a.409.409,0,0,0,.284.324A4.875,4.875,0,0,1,33.6,27a.41.41,0,0,0,.43-.028l.981-.7,1.34,1.34-.7.981a.408.408,0,0,0-.028.43,4.87,4.87,0,0,1,.358.863.409.409,0,0,0,.324.284l1.189.2Z" transform="translate(-24.262 -24.262)" fill="#67748a" stroke="#67748a" stroke-width="0.1"/>
</svg>
