<svg xmlns="http://www.w3.org/2000/svg" width="16" height="16" viewBox="0 0 16 16">
  <defs>
    <style>
      .cls-1 {
        fill: #fff;
      }
    </style>
  </defs>
  <path id="Path_13329" data-name="Path 13329" class="cls-1" d="M8,0a8,8,0,1,0,8,8A8,8,0,0,0,8,0Zm.16,12.24a.87.87,0,1,1,.853-.869.87.87,0,0,1-.853.869Zm2.01-5.29a3.328,3.328,0,0,1-1.328,1.5.2.2,0,0,0-.115.2v.824H7.387c0-.04-.01-.08-.01-.122V8.03a.16.16,0,0,1,.11-.17,2.925,2.925,0,0,0,1.17-.9,1.782,1.782,0,0,0,.328-.717.915.915,0,0,0-.653-1.083,1.018,1.018,0,0,0-1.3.648c-.021.082-.032.16-.048.258H5.616a5.731,5.731,0,0,1,.1-.6,2.339,2.339,0,0,1,2.1-1.7,2.373,2.373,0,0,1,2.494,1.7A2.094,2.094,0,0,1,10.17,6.95Z"/>
</svg>
