<svg xmlns="http://www.w3.org/2000/svg" width="16" height="16" viewBox="0 0 16 16">
  <g id="Group_11715" data-name="Group 11715" transform="translate(-961 -267)">
    <rect id="Rectangle_6624" data-name="Rectangle 6624" width="16" height="16" transform="translate(961 267)" fill="#fff" opacity="0"/>
    <path id="Fill_1" data-name="Fill 1" d="M1.148,10.676A3.038,3.038,0,0,1,.91,6.128l1.936-1.9a3.172,3.172,0,0,1,4.415,0L8,4.953l-.975.959-.739-.727a1.765,1.765,0,0,0-2.464,0l-1.935,1.9a1.693,1.693,0,0,0,.135,2.54,1.838,1.838,0,0,0,2.4-.191l.656-.644a.7.7,0,0,1,.975,0,.668.668,0,0,1,0,.958l-.625.613a3.405,3.405,0,0,1-2.371.971A3.033,3.033,0,0,1,1.148,10.676Zm3.59-3.57L4,6.38l.975-.959.739.727a1.765,1.765,0,0,0,2.464,0l1.935-1.9a1.692,1.692,0,0,0-.135-2.54,1.838,1.838,0,0,0-2.4.191l-.656.644a.7.7,0,0,1-.976,0,.669.669,0,0,1,0-.958L6.571.971A3.267,3.267,0,0,1,10.852.658a3.038,3.038,0,0,1,.238,4.547l-1.936,1.9a3.172,3.172,0,0,1-4.415,0Z" transform="translate(963 269.4)" fill="#1565c0"/>
  </g>
</svg>
