<svg xmlns="http://www.w3.org/2000/svg" xmlns:xlink="http://www.w3.org/1999/xlink" width="126.477" height="30" viewBox="0 0 126.477 30">
  <defs>
    <linearGradient id="linear-gradient" x1="0.5" y1="0.341" x2="0" y2="0.67" gradientUnits="objectBoundingBox">
      <stop offset="0" stop-color="#cc2027"/>
      <stop offset="1" stop-color="#991f23"/>
    </linearGradient>
    <linearGradient id="linear-gradient-2" y1="0.5" x2="0.791" y2="0.535" gradientUnits="objectBoundingBox">
      <stop offset="0" stop-color="#f58220"/>
      <stop offset="1" stop-color="#da2128"/>
    </linearGradient>
  </defs>
  <g id="Group_9129" data-name="Group 9129" transform="translate(-558.477 -357.393)">
    <g id="Group_4073" data-name="Group 4073" transform="translate(558.477 357.393)">
      <path id="Path_13536" data-name="Path 13536" d="M-10300.463-882.5l-9.076-6.961a1.992,1.992,0,0,1-.541-.7,2.637,2.637,0,0,1-.162-.911V-905l19.5,15-9.721,7.5Z" transform="translate(10310.242 912.5)" fill="url(#linear-gradient)"/>
      <path id="Path_13535" data-name="Path 13535" d="M-10300.469-879.053l-9.07-6.96h0a2,2,0,0,1-.541-.7,2.639,2.639,0,0,1-.162-.911v-.106l.006,0a.123.123,0,0,0,0,.029.563.563,0,0,0,.563.563.551.551,0,0,0,.324-.1l28.406-21.82v15l-19.523,15Z" transform="translate(10310.242 909.053)" fill="url(#linear-gradient-2)"/>
      <path id="Path_13537" data-name="Path 13537" d="M13087.52-1368.009l19.5,15-9.723,7.5-9.777-7.5Z" transform="translate(-13068.02 1375.509)" fill="url(#linear-gradient)"/>
      <path id="Path_13538" data-name="Path 13538" d="M13087.383-1367.375l29.307-22.5v15l-19.535,15Z" transform="translate(-13067.883 1389.875)" fill="url(#linear-gradient-2)"/>
    </g>
    <g id="Group_4075" data-name="Group 4075" transform="translate(615.477 363.994)">
      <g id="Group_4268" data-name="Group 4268" transform="translate(0 0)">
        <path id="Path_13515" data-name="Path 13515" d="M-10312-889v-18h10.443l1.121,3.6h-7.834v3.96h8.95l1.12,3.6h-10.07V-889Z" transform="translate(10312 907)" fill="#fff"/>
        <path id="Path_13519" data-name="Path 13519" d="M-10303.048-887l-1.718-2.805a3.166,3.166,0,0,1,.364-3.743l.894-.9,4.563,7.452Zm-5.222,0h-3.73v-18h3.73v9.36l4.475-4.32h4.85l-4.85,5.04-2.752,2.813,0,0-.717.739-1.017,1.039v.72l.015-.015V-887Z" transform="translate(10368.422 905)" fill="#fff"/>
        <path id="Path_13514" data-name="Path 13514" d="M-10299.691-891.573l-2.238-7.324-2.237,7.324h-3.729L-10312-905h3.73l2.237,7.967,2.56-7.967h3.087l2.559,7.967,2.238-7.967h3.73l-4.1,13.428Z" transform="translate(10325.132 909.573)" fill="#fff"/>
        <path id="Path_13512" data-name="Path 13512" d="M-10305.1-891.573a7.013,7.013,0,0,1-2.685-.528,6.854,6.854,0,0,1-2.191-1.439,6.675,6.675,0,0,1-1.48-2.134,6.508,6.508,0,0,1-.543-2.614,6.506,6.506,0,0,1,.543-2.613,6.675,6.675,0,0,1,1.48-2.134,6.851,6.851,0,0,1,2.191-1.439,7.014,7.014,0,0,1,2.685-.528,7.024,7.024,0,0,1,2.687.528,6.907,6.907,0,0,1,2.2,1.439,6.694,6.694,0,0,1,1.477,2.134,6.522,6.522,0,0,1,.543,2.613,6.525,6.525,0,0,1-.543,2.614,6.694,6.694,0,0,1-1.477,2.134,6.907,6.907,0,0,1-2.2,1.439A7.023,7.023,0,0,1-10305.1-891.573Zm0-10.071a3.407,3.407,0,0,0-3.448,3.356,3.408,3.408,0,0,0,3.448,3.357,3.41,3.41,0,0,0,3.452-3.357A3.409,3.409,0,0,0-10305.1-901.643Z" transform="translate(10344.478 909.573)" fill="#fff"/>
        <path id="Path_13513" data-name="Path 13513" d="M-10312-891.573V-905h3.73v1.341a4.975,4.975,0,0,1,3.357-1.342c.124,0,.249,0,.372.014v3.735c-.116-.012-.241-.018-.372-.018a3.191,3.191,0,0,0-3.357,2.984h0v6.713Z" transform="translate(10359.678 909.572)" fill="#fff"/>
      </g>
    </g>
  </g>
</svg>
