<svg xmlns="http://www.w3.org/2000/svg" width="16.23" height="14.876" viewBox="0 0 16.23 14.876">
    <defs>
        <style>
            .cls-1{fill:#67748a;stroke:#67748a;stroke-width:.2px}
        </style>
    </defs>
    <g id="padlock_1_" data-name="padlock (1)" transform="translate(.13 -20.013)">
        <g id="Group_3972" data-name="Group 3972" transform="translate(0 20.113)">
            <path id="Path_12846" d="M13.85 22.263a7.337 7.337 0 0 0-10.442.066.4.4 0 1 0 .566.553 6.546 6.546 0 1 1-1.86 4.569v-.082l.652.652a.4.4 0 0 0 .28.115.4.4 0 0 0 .28-.115.4.4 0 0 0 0-.56L2 26.134a.4.4 0 0 0-.56 0L.116 27.461a.4.4 0 0 0 .28.675.4.4 0 0 0 .28-.115l.652-.652v.082a7.337 7.337 0 0 0 12.526 5.188 7.34 7.34 0 0 0 0-10.376z" class="cls-1" data-name="Path 12846" transform="translate(0 -20.113)"/>
            <path id="Path_12847" d="M161.872 113.413a2.329 2.329 0 0 0-2.327 2.327v1.123h-.724a.4.4 0 0 0-.4.4v3.937a.4.4 0 0 0 .4.4h6.107a.4.4 0 0 0 .4-.4v-3.937a.4.4 0 0 0-.4-.4h-.728v-1.123a2.335 2.335 0 0 0-2.328-2.327zm-1.537 2.331a1.537 1.537 0 0 1 3.075 0v1.123h-3.075v-1.123zm4.2 5.06h-5.317v-3.15h5.317z" class="cls-1" data-name="Path 12847" transform="translate(-153.21 -110.342)"/>
        </g>
    </g>
</svg>
