<svg xmlns="http://www.w3.org/2000/svg" width="42.006" height="48.849" viewBox="0 0 42.006 48.849">
  <g id="Group_4109" data-name="Group 4109" transform="translate(-1076 -531.25)">
    <path id="Path_13320" data-name="Path 13320" d="M21,0A21,21,0,1,1,0,21,21,21,0,0,1,21,0Z" transform="translate(1076 534.105)" fill="#e9eaeb"/>
    <path id="Path_4440" data-name="Path 4440" d="M113.966,149.4a4.357,4.357,0,0,0-6.138-5.458A4.2,4.2,0,0,0,104.112,141c-.688,0-10.11-.016-10.84-.016a3.583,3.583,0,0,0-3.583,3.583c0,.022,0,.043,0,.065a3.913,3.913,0,0,0-4.276,5.62l.011.019a3.931,3.931,0,0,0-1.935,3.388,11.453,11.453,0,0,0,1.173,2.9h29.56l2.171-3.237C116.622,151.965,115.417,150.108,113.966,149.4Z" transform="translate(998.336 423.447)" fill="#fff"/>
    <path id="Path_4441" data-name="Path 4441" d="M83.909,155.139a3.934,3.934,0,0,1,1.518-5.151l-.011-.019a3.917,3.917,0,0,1,4.276-5.62c0-.022,0-.043,0-.065a3.583,3.583,0,0,1,3.583-3.583c.73,0,4.092-.973,5.488-.973,1.522,0,4.928,1.3,5.616,1.3a3.582,3.582,0,0,1,3.452,2.634,4.356,4.356,0,0,1,6.138,5.458c1.451.707,2.656,2.564,2.429,3.915" transform="translate(998.336 423.725)" fill="none" stroke="#595959" stroke-miterlimit="10" stroke-width="1.5"/>
    <path id="Path_4442" data-name="Path 4442" d="M111.933,148.387a4.3,4.3,0,0,1,4.295-4.294" transform="translate(992.019 422.755)" fill="none" stroke="#595959" stroke-miterlimit="10" stroke-width="1.5"/>
    <path id="Path_4443" data-name="Path 4443" d="M122.5,149.613a4.291,4.291,0,0,1-2.146,3.719" transform="translate(990.148 421.529)" fill="none" stroke="#595959" stroke-miterlimit="10" stroke-width="1.5"/>
    <path id="Path_4444" data-name="Path 4444" d="M87.195,154.1a4.3,4.3,0,0,1-1.409-1.473" transform="translate(997.826 420.86)" fill="none" stroke="#595959" stroke-miterlimit="10" stroke-width="1.5"/>
    <path id="Path_4445" data-name="Path 4445" d="M101.883,154.651a4.294,4.294,0,0,1,4.294-4.294" transform="translate(994.251 421.364)" fill="none" stroke="#595959" stroke-miterlimit="10" stroke-width="1.5"/>
    <path id="Path_4446" data-name="Path 4446" d="M111.883,154.643a4.294,4.294,0,0,0,4.294,4.294" transform="translate(992.03 420.412)" fill="none" stroke="#595959" stroke-miterlimit="10" stroke-width="1.5"/>
    <path id="Path_4447" data-name="Path 4447" d="M102.512,151.273a4.3,4.3,0,0,0-3.24-1.822" transform="translate(994.831 421.565)" fill="none" stroke="#595959" stroke-miterlimit="10" stroke-width="1.5"/>
    <path id="Path_4448" data-name="Path 4448" d="M93.72,147.367a3.872,3.872,0,0,0-3.275-1.8" transform="translate(996.792 422.428)" fill="none" stroke="#595959" stroke-miterlimit="10" stroke-width="1.5"/>
    <path id="Path_4449" data-name="Path 4449" d="M113.443,134.174a3.237,3.237,0,0,0,2.78-3.366V116.262a9.239,9.239,0,0,0-2.567-5.8.79.79,0,0,0-1.266,0,9.188,9.188,0,0,0-2.39,5.8v14.7A3.141,3.141,0,0,0,113.443,134.174Z" transform="translate(992.448 430.296)" fill="#e9eaeb" stroke="#595959" stroke-miterlimit="10" stroke-width="1.5"/>
    <path id="Path_4450" data-name="Path 4450" d="M90.443,134.172a3.237,3.237,0,0,0,2.78-3.366V116.26a9.211,9.211,0,0,0-2.425-5.821.858.858,0,0,0-1.313,0A9.227,9.227,0,0,0,87,116.26v14.7A3.141,3.141,0,0,0,90.443,134.172Z" transform="translate(997.557 430.298)" fill="#e9eaeb" stroke="#595959" stroke-miterlimit="10" stroke-width="1.5"/>
    <path id="Path_4451" data-name="Path 4451" d="M100.612,99.294c-3.637,0-6.612,4.106-6.612,8.073v22.814h13.224V107.367C107.224,103.4,104.249,99.294,100.612,99.294Z" transform="translate(996.002 432.706)" fill="#fff" stroke="#595959" stroke-miterlimit="10" stroke-width="1.5"/>
    <path id="Path_4452" data-name="Path 4452" d="M103.668,128.048v-7.779a9.483,9.483,0,0,0-1.556-5.445,2.271,2.271,0,0,0-3.112,0,9.483,9.483,0,0,0-1.556,5.445v7.779L92,132.715v2.334h5.445L99,136.6h3.154l1.514-1.556h5.445v-2.334Z" transform="translate(996.446 429.393)" fill="#ff8a5b" stroke="#595959" stroke-miterlimit="10" stroke-width="1.5"/>
    <line id="Line_1302" data-name="Line 1302" y2="3.889" transform="translate(1097.003 558.997)" fill="none" stroke="#595959" stroke-miterlimit="10" stroke-width="1.5"/>
  </g>
</svg>
