<svg xmlns="http://www.w3.org/2000/svg" width="16.3" height="16.3" viewBox="0 0 16.3 16.3">
  <g id="_x37_7_Essential_Icons" transform="translate(-11.85 -11.85)">
    <path id="Pie_Chart" d="M20,12a8,8,0,1,0,8,8A8,8,0,0,0,20,12Zm.421.863a7.155,7.155,0,0,1,6.716,6.716H20.421ZM20,27.158a7.153,7.153,0,0,1-.421-14.295V20a.416.416,0,0,0,.126.295l5.053,5.053A7.169,7.169,0,0,1,20,27.158Zm5.347-2.4-4.337-4.337h6.126A7.116,7.116,0,0,1,25.347,24.758Z" transform="translate(0 0)" fill="#9b9ca5" stroke="#9b9ca5" stroke-width="0.3"/>
  </g>
</svg>
