<svg xmlns="http://www.w3.org/2000/svg" width="16.302" height="16.296" viewBox="0 0 16.302 16.296">
  <g id="Group_4076" data-name="Group 4076" transform="translate(1653.65 -4728.85)">
    <g id="Group_4075" data-name="Group 4075" transform="translate(-1653.5 4729)">
      <path id="Path_13303" data-name="Path 13303" d="M-934.208,965.261a.374.374,0,0,0-.531,0,.374.374,0,0,0,0,.531l2.212,2.212a.355.355,0,0,0,.265.1A.355.355,0,0,0-932,968a.374.374,0,0,0,0-.531Z" transform="translate(936.568 -963.432)" fill="#9b9ca5" stroke="#9b9ca5" stroke-width="0.3"/>
      <path id="Path_13304" data-name="Path 13304" d="M-942.621,993.669a.365.365,0,0,0-.369-.369h-3.142a.365.365,0,0,0-.369.369.365.365,0,0,0,.369.369H-943A.378.378,0,0,0-942.621,993.669Z" transform="translate(946.5 -986.545)" fill="#9b9ca5" stroke="#9b9ca5" stroke-width="0.3"/>
      <path id="Path_13305" data-name="Path 13305" d="M-932.627,1006.461l-2.212,2.212a.374.374,0,0,0,0,.531.355.355,0,0,0,.265.1.355.355,0,0,0,.266-.1l2.212-2.212a.374.374,0,0,0,0-.531A.374.374,0,0,0-932.627,1006.461Z" transform="translate(936.654 -997.143)" fill="#9b9ca5" stroke="#9b9ca5" stroke-width="0.3"/>
      <path id="Path_13306" data-name="Path 13306" d="M-893.274,968.107a.355.355,0,0,0,.265-.1l2.212-2.212a.374.374,0,0,0,0-.531.374.374,0,0,0-.531,0l-2.212,2.212a.374.374,0,0,0,0,.531A.424.424,0,0,0-893.274,968.107Z" transform="translate(902.858 -963.432)" fill="#9b9ca5" stroke="#9b9ca5" stroke-width="0.3"/>
      <path id="Path_13307" data-name="Path 13307" d="M-906.336,957.379a.365.365,0,0,0,.369-.369v-3.141a.365.365,0,0,0-.369-.369.365.365,0,0,0-.369.369V957A.368.368,0,0,0-906.336,957.379Z" transform="translate(913.46 -953.5)" fill="#9b9ca5" stroke="#9b9ca5" stroke-width="0.3"/>
      <path id="Path_13308" data-name="Path 13308" d="M-902.692,991.5l-7.065-2.36a.883.883,0,0,0-.9.206.876.876,0,0,0-.207.9l2.36,7.065a.758.758,0,0,0,.693.531h.044a.805.805,0,0,0,.708-.442l1.445-2.994a.014.014,0,0,1,.015-.015l2.994-1.445h0a.764.764,0,0,0,.442-.767A.771.771,0,0,0-902.692,991.5Zm-.221.782-2.994,1.445a.748.748,0,0,0-.369.369l-1.445,2.994c0,.015-.015.015-.03.015s-.029-.015-.029-.029l-2.36-7.065a.151.151,0,0,1,.029-.133.108.108,0,0,1,.089-.029h.044l7.065,2.36a.032.032,0,0,1,.029.029C-902.884,992.249-902.914,992.278-902.914,992.278Z" transform="translate(918.158 -981.843)" fill="#9b9ca5" stroke="#9b9ca5" stroke-width="0.3"/>
    </g>
  </g>
</svg>
