<svg xmlns="http://www.w3.org/2000/svg" width="16.2" height="16.2" viewBox="0 0 16.2 16.2">
  <g id="global" transform="translate(0.1 0.1)">
    <path id="Path_24" data-name="Path 24" d="M8,0a8,8,0,1,0,8,8A7.993,7.993,0,0,0,8,0ZM5.585,1.09A11.492,11.492,0,0,0,4.5,2.961H2.686a7.255,7.255,0,0,1,2.9-1.872ZM2.114,3.642h2.1a12.037,12.037,0,0,0-.8,4.018H.69A7.3,7.3,0,0,1,2.114,3.642Zm0,8.717A7.3,7.3,0,0,1,.69,8.34H3.409a11.969,11.969,0,0,0,.818,4.018Zm.573.681H4.519A12.3,12.3,0,0,0,5.6,14.917a7.28,7.28,0,0,1-2.912-1.878ZM7.66,15.313a7.8,7.8,0,0,1-1-.115,11.558,11.558,0,0,1-1.384-2.156H7.66Zm0-2.955H4.96A11.386,11.386,0,0,1,4.09,8.34H7.66Zm0-4.7H4.09a11.467,11.467,0,0,1,.864-4.018H7.66Zm0-4.7h-2.4A11.177,11.177,0,0,1,6.655.8,7.249,7.249,0,0,1,7.663.69Zm6.223.681A7.263,7.263,0,0,1,15.31,7.66H12.591a11.969,11.969,0,0,0-.818-4.018Zm-.573-.681H11.481A12.052,12.052,0,0,0,10.4,1.083,7.269,7.269,0,0,1,13.314,2.961ZM8.34.69a7.8,7.8,0,0,1,1,.115,11.558,11.558,0,0,1,1.384,2.156H8.34Zm0,2.951h2.7a11.37,11.37,0,0,1,.87,4.018H8.34Zm0,4.7h3.57a11.467,11.467,0,0,1-.864,4.018H8.34V8.34Zm0,6.969V13.039h2.4A11.177,11.177,0,0,1,9.345,15.2,7.249,7.249,0,0,1,8.337,15.31Zm2.061-.393a12.015,12.015,0,0,0,1.076-1.878h1.842A7.3,7.3,0,0,1,10.4,14.917Zm1.364-2.559a12.565,12.565,0,0,0,.825-4.018h2.726a7.3,7.3,0,0,1-1.423,4.018H11.763Z" fill="#67748a" stroke="#67748a" stroke-width="0.2"/>
  </g>
</svg>
